<svg width="550" height="700" xmlns="http://www.w3.org/2000/svg">
 <!-- Created with Method Draw - http://github.com/duopixel/Method-Draw/ -->

 <g>
  <title>background</title>
  <rect fill="none" id="canvas_background" height="702" width="552" y="-1" x="-1"/>
  <g display="none" overflow="visible" y="0" x="0" height="100%" width="100%" id="canvasGrid">
   <rect fill="url(#gridpattern)" stroke-width="0" y="0" x="0" height="100%" width="100%"/>
  </g>
 </g>
 <g>
  <title>Layer 1</title>
  <path stroke="#000" transform="rotate(180 145.2720031738281,330.69354248046875) " id="svg_1" d="m-112.066826,702.701492l96.502068,-744.01591l321.673578,0l96.502034,744.01591l-514.67768,0z" stroke-width="0" fill="#b52032"/>
  <!-- Created with Method Draw - http://github.com/duopixel/Method-Draw/ -->
  <g stroke="null" id="svg_85">
   <g stroke="null" transform="matrix(1.8402942525281905,0,0,1.8337536548381714,-4874.062953845504,-2912.5637706602893) " id="svg_18">
    <path stroke="null" id="svg_20" fill="#fff" d="m2713.153101,1921.145582c-1.93,17.31 -7.35,40.41 -9.84,49.06l25.32,0l15.53,-1.88s3.6,-33.75 5.86,-41.14s0.51,-77.9 0.58,-78.61s-38.05,16.6 -41.85,33.08c-1.47,6.42 5.05,33.65 4.4,39.49z"/>
    <path stroke="null" id="svg_21" fill="#231f20" d="m2703.313101,1970.705582a0.48,0.48 0 0 1 -0.4,-0.2a0.52,0.52 0 0 1 -0.08,-0.44c2.48,-8.64 7.92,-31.88 9.82,-49l0,0c0.28,-2.52 -0.85,-9.35 -2,-16.57c-1.57,-9.49 -3.19,-19.3 -2.34,-23c3.65,-15.88 39.91,-33.49 42.33,-33.49l0,0a0.53,0.53 0 0 1 0.44,0.56c0,0.15 0,2.06 0.08,4.7c0.31,16.74 1.25,67.67 -0.68,74c-2.21,7.26 -5.8,40.7 -5.83,41a0.5,0.5 0 0 1 -0.44,0.44l-15.47,2l-25.43,0zm26.09,-1l24.66,0l-10.32,-1.83c0.43,-4 3.7,-33.83 5.84,-40.84c1.25,-4.1 1.46,-28.89 0.63,-73.69c0,-2.27 -0.06,-3.49 -0.07,-4.14c-4.59,1.71 -37.34,17.3 -40.86,32.57c-0.8,3.47 0.88,13.62 2.36,22.57c1.2,7.3 2.34,14.2 2,16.85l-0.49,0l0.49,0c-1.9,16.76 -7.1,39.38 -9.67,48.51l25.43,0z"/>
    <polygon stroke="null" id="svg_22" fill="#fff" points="2702.64306640625,1944.3954112529755 2704.89306640625,1929.4054210186005 2750.753173828125,1937.4754893779755 2748.903076171875,1953.6754405498505 2702.64306640625,1944.3954112529755 "/>
    <path stroke="null" id="svg_23" fill="#231f20" d="m2748.913101,1954.175582l-0.1,0l-46.27,-9.28a0.52,0.52 0 0 1 -0.4,-0.57l2.26,-15a0.5,0.5 0 0 1 0.2,-0.33a0.51,0.51 0 0 1 0.38,-0.09l45.85,8.08a0.49,0.49 0 0 1 0.41,0.54l-1.84,16.21a0.51,0.51 0 0 1 -0.2,0.35a0.52,0.52 0 0 1 -0.29,0.09zm-45.71,-10.18l45.27,9.09l1.73,-15.2l-44.89,-7.9l-2.11,14.01z"/>
    <polygon stroke="null" id="svg_24" fill="#231f20" points="2751.923095703125,1970.2054698467255 2752.903076171875,1947.2455089092255 2700.563232421875,1936.9854991436005 2693.583251953125,1970.2054698467255 2751.923095703125,1970.2054698467255 "/>
    <path stroke="null" id="svg_25" fill="#231f20" d="m2751.923101,1970.705582l-58.34,0a0.5,0.5 0 0 1 -0.39,-0.18a0.53,0.53 0 0 1 -0.1,-0.42l7,-33.22a0.48,0.48 0 0 1 0.58,-0.39l52.35,10.26a0.48,0.48 0 0 1 0.4,0.51l-1,23a0.51,0.51 0 0 1 -0.5,0.44zm-57.72,-1l57.24,0l1,-22.06l-51.44,-10.08l-6.8,32.14z"/>
    <rect stroke="null" id="svg_26" fill="#fff" transform="rotate(-20.010000228881836 2542.043212890624,1776.3454589843755) " height="190.67" width="143.56" y="1821.305585" x="2690.6831"/>
    <path stroke="null" id="svg_27" fill="#231f20" d="m2762.343101,1947.375582a0.5,0.5 0 0 1 -0.47,-0.33l-65.25,-179.15a0.5,0.5 0 0 1 0.3,-0.64l134.89,-49.13a0.5,0.5 0 0 1 0.65,0.29l65.28,179.16a0.5,0.5 0 0 1 0,0.38a0.48,0.48 0 0 1 -0.28,0.26l-134.9,49.13a0.47,0.47 0 0 1 -0.22,0.03zm-64.6,-179.36l64.9,178.22l134,-48.79l-64.9,-178.21l-134,48.78z"/>
    <rect stroke="null" id="svg_28" fill="#fff" transform="rotate(-20.010000228881836 2542.053222656248,1774.9053955078118) " height="190.67" width="143.56" y="1819.115583" x="2686.643102"/>
    <path stroke="null" id="svg_29" fill="#231f20" d="m2758.293101,1946.615582a0.49,0.49 0 0 1 -0.47,-0.32l-65.25,-179.16a0.49,0.49 0 0 1 0.3,-0.64l134.87,-49.13a0.49,0.49 0 0 1 0.64,0.3l65.25,179.15a0.49,0.49 0 0 1 -0.3,0.64l-134.87,49.13l-0.17,0.03zm-64.61,-179.35l64.91,178.17l134,-48.79l-64.96,-178.21l-133.95,48.83z"/>
    <rect stroke="null" id="svg_30" fill="#fff" transform="matrix(0.94,-0.34,0.34,0.94,-33.86,80.85) " height="190.67" width="143.56" y="2509.997267" x="1988.578968"/>
    <path stroke="null" id="svg_31" fill="#231f20" d="m2754.093101,1943.435582a0.51,0.51 0 0 1 -0.47,-0.32l-65.25,-179.15a0.5,0.5 0 0 1 0.3,-0.64l134.9,-49.13a0.5,0.5 0 0 1 0.38,0a0.53,0.53 0 0 1 0.26,0.29l65.25,179.15a0.5,0.5 0 0 1 -0.3,0.64l-134.9,49.16a0.47,0.47 0 0 1 -0.17,0zm-64.61,-179.34l64.91,178.21l134,-48.79l-64.95,-178.21l-133.96,48.79z"/>
    <rect stroke="null" id="svg_32" fill="#fff" transform="matrix(0.94,-0.34,0.34,0.94,-22.81,61.59) " height="47.54" width="39.37" y="2540.617267" x="1991.628968"/>
    <path stroke="null" id="svg_33" fill="#231f20" d="m2750.223101,1758.795582l16.27,44.64l-37,13.47l-16.26,-44.64l37,-13.47m0,-1a1,1 0 0 0 -0.34,0.06l-37,13.47a1,1 0 0 0 -0.57,0.52a1,1 0 0 0 0,0.77l16.27,44.67a1,1 0 0 0 0.94,0.65a1,1 0 0 0 0.34,-0.06l37,-13.47a1,1 0 0 0 0.6,-1.28l-16.31,-44.69a1,1 0 0 0 -0.94,-0.66l0.01,0.02z"/>
    <line stroke="null" id="svg_34" fill="#fff" y2="1749.925582" x2="2795.223101" y1="1759.965582" x1="2767.653101"/>
    <path stroke="null" id="svg_35" fill="#231f20" d="m2767.653101,1760.435582a0.5,0.5 0 0 1 -0.18,-1l27.57,-10a0.5,0.5 0 1 1 0.35,0.94l-27.57,10.06l-0.17,0z"/>
    <line stroke="null" id="svg_36" fill="#fff" y2="1756.065582" x2="2810.893101" y1="1770.435582" x1="2771.463101"/>
    <path stroke="null" id="svg_37" fill="#231f20" d="m2771.463101,1770.935582a0.51,0.51 0 0 1 -0.47,-0.33a0.49,0.49 0 0 1 0.3,-0.64l39.45,-14.37a0.5,0.5 0 0 1 0.64,0.3a0.5,0.5 0 0 1 -0.29,0.64l-39.46,14.37a0.51,0.51 0 0 1 -0.17,0.03z"/>
    <line stroke="null" id="svg_38" fill="#fff" y2="1774.415582" x2="2793.073101" y1="1780.905582" x1="2775.273101"/>
    <path stroke="null" id="svg_39" fill="#231f20" d="m2775.273101,1781.435582a0.52,0.52 0 0 1 -0.47,-0.33a0.5,0.5 0 0 1 0.3,-0.64l17.8,-6.49a0.5,0.5 0 0 1 0.64,0.3a0.49,0.49 0 0 1 -0.3,0.64l-17.8,6.49a0.47,0.47 0 0 1 -0.17,0.03z"/>
    <line stroke="null" id="svg_40" fill="#fff" y2="1765.395582" x2="2817.853101" y1="1771.875582" x1="2800.053101"/>
    <path stroke="null" id="svg_41" fill="#231f20" d="m2800.053101,1772.375582a0.49,0.49 0 0 1 -0.47,-0.33a0.5,0.5 0 0 1 0.3,-0.64l17.8,-6.48a0.5,0.5 0 0 1 0.34,0.94l-17.8,6.48a0.51,0.51 0 0 1 -0.17,0.03z"/>
    <path stroke="null" id="svg_42" fill="#d1d3d4" d="m2779.093101,1791.875582a0.5,0.5 0 0 1 -0.18,-1l27.57,-10a0.5,0.5 0 0 1 0.64,0.3a0.49,0.49 0 0 1 -0.29,0.64l-27.57,10l-0.17,0.06z"/>
    <path stroke="null" id="svg_43" fill="#d1d3d4" d="m2752.263101,1824.565582a0.48,0.48 0 0 1 -0.47,-0.33a0.5,0.5 0 0 1 0.3,-0.64l27.22,-9.91a0.5,0.5 0 0 1 0.34,0.94l-27.22,9.91l-0.17,0.03z"/>
    <rect stroke="null" id="svg_44" fill="#fff" transform="rotate(-20.010000228881836 2534.8730468749995,1759.7454833984377) " height="10.4" width="13" y="1906.835579" x="2698.173102"/>
    <path stroke="null" id="svg_45" fill="#231f20" d="m2742.213101,1852.335582a0.52,0.52 0 0 1 -0.21,0a0.55,0.55 0 0 1 -0.26,-0.28l-3.56,-9.78a0.5,0.5 0 0 1 0.3,-0.64l12.26,-4.49a0.5,0.5 0 0 1 0.38,0a0.55,0.55 0 0 1 0.26,0.28l3.56,9.77a0.5,0.5 0 0 1 -0.3,0.64l-12.22,4.45a0.47,0.47 0 0 1 -0.21,0.05zm-2.92,-10l3.22,8.83l11.28,-4.1l-3.22,-8.84l-11.28,4.11z"/>
    <rect stroke="null" id="svg_46" fill="#fff" transform="rotate(-20.010000228881836 2540.4631347656227,1756.3953857421873) " height="10.4" width="13" y="1885.985581" x="2697.083102"/>
    <path stroke="null" id="svg_47" fill="#231f20" d="m2735.533101,1834.835582a0.52,0.52 0 0 1 -0.47,-0.33l-3.56,-9.77a0.5,0.5 0 0 1 0.3,-0.64l12.22,-4.45a0.5,0.5 0 0 1 0.64,0.3l3.56,9.77a0.5,0.5 0 0 1 -0.3,0.64l-12.18,4.45a0.47,0.47 0 0 1 -0.21,0.03zm-2.92,-10l3.22,8.84l11.28,-4.11l-3.22,-8.83l-11.28,4.1z"/>
    <path stroke="null" id="svg_48" fill="#d1d3d4" d="m2758.233101,1840.975582a0.52,0.52 0 0 1 -0.47,-0.33a0.5,0.5 0 0 1 0.3,-0.64l27.22,-9.92a0.5,0.5 0 0 1 0.64,0.3a0.49,0.49 0 0 1 -0.3,0.64l-27.22,9.92a0.47,0.47 0 0 1 -0.17,0.03z"/>
    <rect stroke="null" id="svg_49" fill="#fff" transform="rotate(-20.010000228881836 2550.683105468749,1774.9754638671866) " height="10.4" width="13" y="1884.885583" x="2765.073101"/>
    <path stroke="null" id="svg_50" fill="#231f20" d="m2793.303101,1815.155582a0.5,0.5 0 0 1 -0.47,-0.33l-3.56,-9.77a0.46,0.46 0 0 1 0,-0.38a0.45,0.45 0 0 1 0.28,-0.26l12.19,-4.45a0.5,0.5 0 0 1 0.64,0.3l3.56,9.77a0.49,0.49 0 0 1 -0.3,0.64l-12.21,4.45l-0.13,0.03zm-2.79,-10.03l3.22,8.83l11.27,-4.11l-3.22,-8.83l-11.27,4.11z"/>
    <path stroke="null" id="svg_51" fill="#d1d3d4" d="m2809.323101,1803.785582a0.48,0.48 0 0 1 -0.47,-0.33a0.5,0.5 0 0 1 0.3,-0.64l27.22,-9.91a0.5,0.5 0 0 1 0.34,0.94l-27.22,9.91l-0.17,0.03z"/>
    <rect stroke="null" id="svg_52" fill="#fff" transform="rotate(-20.010000228881836 2545.4331054687477,1778.0153808593757) " height="10.4" width="13" y="1904.325584" x="2765.793101"/>
    <path stroke="null" id="svg_53" fill="#231f20" d="m2799.273101,1831.555582a0.5,0.5 0 0 1 -0.47,-0.33l-3.56,-9.79a0.5,0.5 0 0 1 0.3,-0.64l12.2,-4.43a0.51,0.51 0 0 1 0.64,0.3l3.56,9.77a0.5,0.5 0 0 1 0,0.38a0.51,0.51 0 0 1 -0.28,0.26l-12.22,4.45a0.47,0.47 0 0 1 -0.17,0.03zm-2.92,-10l3.22,8.83l11.27,-4.1l-3.21,-8.85l-11.28,4.12z"/>
    <path stroke="null" id="svg_54" fill="#d1d3d4" d="m2815.293101,1820.185582a0.49,0.49 0 0 1 -0.47,-0.33a0.51,0.51 0 0 1 0.3,-0.64l27.22,-9.91a0.5,0.5 0 0 1 0.34,0.94l-27.22,9.91a0.47,0.47 0 0 1 -0.17,0.03z"/>
    <rect stroke="null" id="svg_55" fill="#fff" transform="rotate(-20.010000228881836 2532.433105468749,1780.3454589843752) " height="32.87" width="108.64" y="1933.425585" x="2705.0831"/>
    <path stroke="null" id="svg_56" fill="#231f20" d="m2758.293101,1896.485582a0.41,0.41 0 0 1 -0.21,-0.05a0.48,0.48 0 0 1 -0.26,-0.28l-11.25,-30.88a0.53,0.53 0 0 1 0,-0.39a0.49,0.49 0 0 1 0.28,-0.25l102.1,-37.2a0.49,0.49 0 0 1 0.64,0.3l11.25,30.9a0.5,0.5 0 0 1 0,0.38a0.45,0.45 0 0 1 -0.28,0.26l-102.1,37.16a0.47,0.47 0 0 1 -0.17,0.05zm-10.61,-31.05l10.91,29.95l101.15,-36.88l-10.91,-29.94l-101.15,36.87z"/>
    <line stroke="null" id="svg_57" fill="#fff" y2="1834.555582" x2="2851.543101" y1="1871.735582" x1="2749.463101"/>
    <path stroke="null" id="svg_58" fill="#231f20" d="m2749.463101,1872.235582a0.5,0.5 0 0 1 -0.17,-1l102.07,-37.18a0.5,0.5 0 1 1 0.35,0.94l-102.08,37.21l-0.17,0.03z"/>
    <line stroke="null" id="svg_59" fill="#fff" y2="1885.685582" x2="2786.563101" y1="1854.805582" x1="2775.313101"/>
    <path stroke="null" id="svg_60" fill="#231f20" d="m2786.563101,1886.185582a0.5,0.5 0 0 1 -0.47,-0.32l-11.25,-30.89a0.5,0.5 0 1 1 0.94,-0.34l11.25,30.88a0.5,0.5 0 0 1 -0.3,0.64a0.34,0.34 0 0 1 -0.17,0.03z"/>
    <path stroke="null" id="svg_61" fill="#d1d3d4" d="m2829.173101,1901.705582a0.5,0.5 0 0 1 -0.17,-1l41.18,-15a0.5,0.5 0 0 1 0.34,0.94l-41.18,15l-0.17,0.06z"/>
    <path stroke="null" id="svg_62" fill="#d1d3d4" d="m2761.793101,1906.085582a0.5,0.5 0 0 1 -0.17,-1l102.12,-37.15a0.5,0.5 0 0 1 0.35,0.94l-102.13,37.18l-0.17,0.03z"/>
    <path stroke="null" id="svg_63" fill="#b52032" d="m2761.793101,1790.565582l4.7,12.9l-37,13.47l-4.7,-12.89c2.45,-4.91 7.37,-8.07 11.81,-10.15c1.7,-0.8 3.34,-1.43 4.74,-1.94l0.33,-0.12c1.3,-0.47 2.82,-1 4.47,-1.42l0.09,0c4.74,-1.29 10.51,-1.98 15.56,0.15z"/>
    <path stroke="null" id="svg_64" fill="#231f20" d="m2747.253101,1792.825582l0,0l0.9,13.32l0.26,3.9l-0.83,0.3l-2.31,-3.16l-7.85,-10.75l0,0l0,0a24.76,24.76 0 0 1 9.83,-3.61z"/>
    <path stroke="null" id="svg_65" fill="#fff" d="m2743.133101,1778.835582c-0.56,-2.89 3.74,-5.22 4.69,-1.91a5.1,5.1 0 0 1 -0.08,3.51a3,3 0 0 1 -2.79,1.82"/>
    <path stroke="null" id="svg_66" fill="#231f20" d="m2745.083101,1782.735582l-0.2,0a0.51,0.51 0 0 1 -0.47,-0.55a0.52,0.52 0 0 1 0.55,-0.48a2.47,2.47 0 0 0 2.28,-1.52a4.61,4.61 0 0 0 0.08,-3.11c-0.38,-1.32 -1.27,-1.31 -1.77,-1.2a2.61,2.61 0 0 0 -1.92,2.88a0.5,0.5 0 0 1 -0.4,0.6a0.52,0.52 0 0 1 -0.61,-0.41a3.62,3.62 0 0 1 2.69,-4.07a2.44,2.44 0 0 1 3,1.92a5.57,5.57 0 0 1 -0.13,3.82a3.54,3.54 0 0 1 -3.1,2.12z"/>
    <path stroke="null" id="svg_67" fill="#fff" d="m2731.813101,1782.965582c-1.43,-2.58 -6.22,-1.6 -4.82,1.54a5.05,5.05 0 0 0 2.31,2.59a3,3 0 0 0 3.31,-0.4"/>
    <path stroke="null" id="svg_68" fill="#231f20" d="m2730.743101,1787.935582a3.77,3.77 0 0 1 -1.63,-0.37a5.57,5.57 0 0 1 -2.56,-2.85a2.42,2.42 0 0 1 1.06,-3.39a3.61,3.61 0 0 1 4.68,1.39a0.51,0.51 0 0 1 -0.9,0.5a2.6,2.6 0 0 0 -3.32,-1a1.39,1.39 0 0 0 -0.58,2a4.66,4.66 0 0 0 2.06,2.34a2.49,2.49 0 0 0 2.73,-0.31a0.52,0.52 0 0 1 0.73,0a0.51,0.51 0 0 1 0,0.72a3.24,3.24 0 0 1 -2.27,0.97z"/>
    <path stroke="null" id="svg_69" fill="#fff" d="m2737.393101,1796.435582a5.56,5.56 0 0 0 5.8,0.92a6.16,6.16 0 0 0 4.06,-4.51l-4.31,-10.36l-8.9,3.24l3.35,10.71z"/>
    <path stroke="null" id="svg_70" fill="#231f20" d="m2740.963101,1798.265582a5.74,5.74 0 0 1 -3.93,-1.49a0.57,0.57 0 0 1 -0.13,-0.21l-3.35,-10.69a0.51,0.51 0 0 1 0.32,-0.63l8.87,-3.24a0.52,0.52 0 0 1 0.66,0.28l4.34,10.34a0.65,0.65 0 0 1 0,0.28a6.66,6.66 0 0 1 -4.4,4.92a7,7 0 0 1 -2.38,0.44zm-3.11,-2.14a5.05,5.05 0 0 0 5.16,0.73a5.68,5.68 0 0 0 3.7,-4l-4.06,-9.74l-8,2.91l3.2,10.1z"/>
    <path stroke="null" id="svg_71" fill="#231f20" d="m2735.683101,1790.225582a7.76,7.76 0 0 0 3.55,1.38c2.12,0.33 5.15,0.47 7.17,-0.64l-2,-4.32a21.11,21.11 0 0 1 -4.66,1.79a14.44,14.44 0 0 1 -4.35,0.7c-0.28,-0.06 -0.14,0.76 0.29,1.09z"/>
    <path stroke="null" id="svg_72" fill="#231f20" d="m2742.143101,1792.335582a20.08,20.08 0 0 1 -3,-0.24a8.11,8.11 0 0 1 -3.77,-1.48a1.62,1.62 0 0 1 -0.58,-1.62a0.59,0.59 0 0 1 0.6,-0.4a13.77,13.77 0 0 0 4.19,-0.68a20.46,20.46 0 0 0 4.61,-1.71a0.53,0.53 0 0 1 0.39,0a0.48,0.48 0 0 1 0.29,0.27l2,4.31a0.5,0.5 0 0 1 -0.21,0.65a9.58,9.58 0 0 1 -4.52,0.9zm-6.32,-2.74a0.7,0.7 0 0 0 0.17,0.24l0,0a7.29,7.29 0 0 0 3.32,1.28c1.26,0.19 4.31,0.53 6.44,-0.38l-1.56,-3.41a22,22 0 0 1 -4.34,1.55a15.89,15.89 0 0 1 -4.03,0.72zm-0.48,0l0,0z"/>
    <path stroke="null" id="svg_73" fill="#fff" d="m2740.153101,1789.435582l0.73,-0.27a6.67,6.67 0 0 0 4,-8.55l-3.62,-9.93a10.15,10.15 0 0 0 -13.28,4.75l3.61,10a6.68,6.68 0 0 0 8.56,4z"/>
    <path stroke="null" id="svg_74" fill="#231f20" d="m2737.253101,1769.715582a8.36,8.36 0 0 1 4,0.93l3.62,9.93a6.67,6.67 0 0 1 -4,8.55l-0.73,0.27a6.82,6.82 0 0 1 -2.29,0.4a6.68,6.68 0 0 1 -6.26,-4.36l-3.61,-10a9.3,9.3 0 0 1 5.66,-5.1a10.42,10.42 0 0 1 3.61,-0.66m0,-1a11.53,11.53 0 0 0 -4,0.72a10.31,10.31 0 0 0 -6.28,5.74a1,1 0 0 0 0,0.69l3.61,9.93a7.69,7.69 0 0 0 9.88,4.6l0.73,-0.27a7.71,7.71 0 0 0 4.61,-9.88l-3.62,-9.92a1,1 0 0 0 -0.44,-0.54a9.45,9.45 0 0 0 -4.53,-1.07l0.04,0z"/>
    <polygon stroke="null" id="svg_75" fill="#fff" points="2744.313232421875,1800.075464963913 2742.14306640625,1799.3854014873505 2743.36328125,1797.4654796123505 2745.523193359375,1798.1554210186005 2744.313232421875,1800.075464963913 "/>
    <polygon stroke="null" id="svg_76" fill="#fff" points="2748.153076171875,1806.1554210186005 2748.4130859375,1810.055445432663 2747.583251953125,1810.355494260788 2745.273193359375,1807.1954600811005 2743.543212890625,1799.825464963913 2743.543212890625,1799.825464963913 2743.483154296875,1799.575464963913 2743.443115234375,1799.4154307842255 2744.55322265625,1799.015406370163 2744.623046875,1799.1654307842255 2744.7431640625,1799.3854014873505 2744.7431640625,1799.3954112529755 2748.153076171875,1806.1554210186005 "/>
    <path stroke="null" id="svg_77" fill="#231f20" d="m2734.113101,1815.775582a0.51,0.51 0 0 1 -0.46,-0.29l-5.06,-10.43a0.52,0.52 0 0 1 0.93,-0.45l5.05,10.43a0.51,0.51 0 0 1 -0.24,0.69a0.54,0.54 0 0 1 -0.22,0.05z"/>
    <path stroke="null" id="svg_78" fill="#231f20" d="m2761.893101,1805.655582a0.5,0.5 0 0 1 -0.5,-0.39l-2.84,-11.24a0.52,0.52 0 0 1 1,-0.25l2.84,11.24a0.52,0.52 0 0 1 -0.38,0.63l-0.12,0.01z"/>
    <path stroke="null" id="svg_79" fill="#fff" d="m2730.933101,1784.085582c-0.95,-3.11 -2.56,-6.89 -2.05,-7.7s1.13,0 1.64,-0.92s0.08,-1 0.08,-1a12,12 0 0 1 3.42,-1.93c1.18,-0.2 4,-0.38 5.06,-1.88c0,0 2.7,1.63 3.25,2.92s1.51,5 1.76,4.85s0.75,-3.52 0.65,-5a6.28,6.28 0 0 0 -5.26,-5.64s-0.39,-1.64 -4.46,-1.24s-7.56,3.13 -8.32,4.73a12.17,12.17 0 0 0 -0.38,7.2c0.59,1.78 1.27,1.76 1.27,1.76l3.34,3.85z"/>
    <path stroke="null" id="svg_80" fill="#231f20" d="m2730.933101,1784.595582a0.5,0.5 0 0 1 -0.39,-0.18l-3.24,-3.79c-0.37,-0.13 -1,-0.59 -1.47,-2.07a12.71,12.71 0 0 1 0.4,-7.58c0.85,-1.79 4.45,-4.6 8.74,-5c3.43,-0.33 4.53,0.71 4.87,1.29a6.79,6.79 0 0 1 5.42,6.07c0,0.8 -0.2,5.1 -0.91,5.51a0.55,0.55 0 0 1 -0.47,0c-0.36,-0.14 -0.5,-0.45 -1.24,-2.82c-0.28,-0.89 -0.57,-1.81 -0.79,-2.31a8.48,8.48 0 0 0 -2.67,-2.45c-1.17,1.16 -3.23,1.45 -4.51,1.63l-0.57,0.09a9.65,9.65 0 0 0 -2.83,1.56a1.88,1.88 0 0 1 -0.3,1.15a1.34,1.34 0 0 1 -1.28,0.77c-0.24,0 -0.28,0 -0.38,0.17c-0.2,0.46 0.65,2.94 1.22,4.58c0.31,0.9 0.63,1.82 0.89,2.7a0.51,0.51 0 0 1 -0.24,0.6a0.54,0.54 0 0 1 -0.25,0.08zm-3.27,-5a0.4,0.4 0 0 1 0.32,0.18l1.63,1.91l-0.06,-0.17c-1.05,-3.06 -1.58,-4.69 -1.11,-5.45a1.3,1.3 0 0 1 1.21,-0.66c0.25,0 0.29,0 0.41,-0.24a1.76,1.76 0 0 0 0.18,-0.42a0.59,0.59 0 0 1 -0.15,-0.27a0.55,0.55 0 0 1 0.19,-0.51a12.24,12.24 0 0 1 3.65,-2l0.6,-0.09c1.24,-0.17 3.32,-0.47 4.13,-1.58a0.51,0.51 0 0 1 0.68,-0.14c0.3,0.17 2.86,1.75 3.46,3.15c0.23,0.55 0.53,1.5 0.82,2.41c0.11,0.34 0.23,0.72 0.35,1.08a20.22,20.22 0 0 0 0.26,-3.43a5.77,5.77 0 0 0 -4.84,-5.18a0.51,0.51 0 0 1 -0.41,-0.39l0,0s-0.46,-1.18 -3.91,-0.84c-4,0.39 -7.27,3.1 -7.9,4.45a11.62,11.62 0 0 0 -0.37,6.8c0.43,1.28 0.85,1.42 0.85,1.42l0.01,-0.03zm2.81,-4.72z"/>
    <path stroke="null" id="svg_81" fill="#231f20" d="m2805.213101,1743.905582a2.86,2.86 0 0 1 -2.68,-1.88l-4.53,-12.45a0.49,0.49 0 0 1 0.29,-0.64a0.52,0.52 0 0 1 0.65,0.3l4.53,12.45a1.85,1.85 0 0 0 3.48,-1.25l-6.57,-18a3.47,3.47 0 0 0 -4.43,-2.07a3.45,3.45 0 0 0 -2.07,4.44l0.25,0.69a0.5,0.5 0 0 1 -0.3,0.64a0.49,0.49 0 0 1 -0.64,-0.3l-0.25,-0.69a4.46,4.46 0 0 1 6.07,-5.57a4.44,4.44 0 0 1 2.31,2.52l6.57,18a2.87,2.87 0 0 1 -2.68,3.83l0,-0.02z"/>
    <path stroke="null" id="svg_82" fill="#fff" d="m2715.093101,1890.045582c5.47,-9 12.52,-22.83 17.11,-32.27c2.25,-4.63 10.54,-2.06 11.14,1.87c0.83,5.5 -8.85,33.82 -8.91,33.75a30,30 0 0 1 3.22,32.95"/>
    <path stroke="null" id="svg_83" fill="#231f20" d="m2737.653101,1926.855582a0.44,0.44 0 0 1 -0.24,-0.07a0.49,0.49 0 0 1 -0.19,-0.68a29.69,29.69 0 0 0 -3.18,-32.39a0.5,0.5 0 0 1 -0.08,-0.5l0,-0.07c0.55,-1.3 9.64,-28.25 8.85,-33.42c-0.27,-1.76 -2.52,-3.45 -5.14,-3.85c-2.34,-0.35 -4.23,0.44 -5.05,2.12c-2.37,4.86 -10.6,21.58 -17.13,32.31a0.5,0.5 0 0 1 -0.69,0.16a0.49,0.49 0 0 1 -0.17,-0.68c6.51,-10.69 14.73,-27.37 17.09,-32.23c1,-2.1 3.3,-3.1 6.1,-2.67c2.61,0.4 5.6,2.18 6,4.69c0.72,4.74 -7,29.59 -8.85,33.7a30.33,30.33 0 0 1 3.11,33.32a0.51,0.51 0 0 1 -0.43,0.26z"/>
    <circle stroke="null" id="svg_84" fill="#231f20" r="2.17" cy="1940.475582" cx="2744.483101"/>
   </g>
  </g>
 </g>
</svg>