<svg width="1024" height="768" xmlns="http://www.w3.org/2000/svg" xmlns:xlink="http://www.w3.org/1999/xlink">
 <!-- Created with Method Draw - http://github.com/duopixel/Method-Draw/ -->
 <defs>
  <symbol id="svg_7" viewBox="0 0 1440 320">
   <path d="m0,0l48,48c48,48 144,144 240,154.7c96,10.3 192,-63.7 288,-112c96,-47.7 192,-69.7 288,-32c96,37.3 192,133.3 288,138.6c96,5.7 192,-80.3 240,-122.6l48,-42.7l0,288l-48,0c-48,0 -144,0 -240,0c-96,0 -192,0 -288,0c-96,0 -192,0 -288,0c-96,0 -192,0 -288,0c-96,0 -192,0 -240,0l-48,0l0,-320z" fill="#b52032"/>
  </symbol>
 </defs>
 <g>
  <title>background</title>
  <rect fill="#fff" id="canvas_background" height="770" width="1026" y="-1" x="-1"/>
  <g display="none" overflow="visible" y="0" x="0" height="100%" width="100%" id="canvasGrid">
   <rect fill="url(#gridpattern)" stroke-width="0" y="0" x="0" height="100%" width="100%"/>
  </g>
 </g>
 <g>
  <title>Layer 1</title>
  <g fill="#fff" transform="rotate(90 193.00030517578122,342.0004272460938) " id="svg_13">
   <path stroke="null" id="svg_12" d="m-171.173042,188.628474l24.27823,46.01159c24.27822,46.01159 72.83466,138.03476 121.39111,148.29151c48.55645,9.87332 97.11289,-61.06121 145.66934,-107.36037c48.55644,-45.72402 97.11289,-66.81266 145.66933,-30.67439c48.55645,35.75484 97.11289,127.77801 145.66934,132.85846c48.55644,5.46387 97.11289,-76.97356 121.39111,-117.52127l24.27822,-40.93114l0,276.06952l-24.27822,0c-24.27822,0 -72.83467,0 -121.39111,0c-48.55645,0 -97.11289,0 -145.66934,0c-48.55644,0 -97.11289,0 -145.66933,0c-48.55645,0 -97.11289,0 -145.66934,0c-48.55645,0 -97.11289,0 -121.39111,0l-24.27823,0l0,-306.74391z" fill="#aa121f"/>
  </g>
  <g fill="#fff" transform="rotate(90 143.00021362304685,340.00036621093756) " id="svg_5">
   <path stroke="null" id="svg_4" d="m-221.173095,186.62844l24.278221,46.011587c24.278221,46.011587 72.834662,138.034761 121.391103,148.291511c48.556441,9.87332 97.112882,-61.06121 145.669323,-107.36037c48.556441,-45.724015 97.112882,-66.812659 145.669323,-30.674391c48.556441,35.754837 97.112882,127.778012 145.669323,132.858458c48.556441,5.463876 97.112882,-76.973551 121.391103,-117.521262l24.278221,-40.931141l0,276.069522l-24.278221,0c-24.278221,0 -72.834662,0 -121.391103,0c-48.556441,0 -97.112882,0 -145.669323,0c-48.556441,0 -97.112882,0 -145.669323,0c-48.556441,0 -97.112882,0 -145.669323,0c-48.556441,0 -97.112882,0 -121.391103,0l-24.278221,0l0,-306.743914z" fill="#b52032"/>
  </g>
  <use x="0" y="0" transform="matrix(0.0888887345790863,0,0,0.0888887345790863,0,0) " xlink:href="#svg_7" id="svg_8"/>
 </g>
</svg>