<svg width="1320" height="683.0000000000001" xmlns="http://www.w3.org/2000/svg">
 <!-- Created with Method Draw - http://github.com/duopixel/Method-Draw/ -->

 <g>
  <title>background</title>
  <rect fill="#fff" id="canvas_background" height="685" width="1322" y="-1" x="-1"/>
  <g display="none" overflow="visible" y="0" x="0" height="100%" width="100%" id="canvasGrid">
   <rect fill="url(#gridpattern)" stroke-width="0" y="0" x="0" height="100%" width="100%"/>
  </g>
 </g>
 <g>
  <title>Layer 1</title>
  <g stroke="null" id="svg_10">
   <path stroke="null" id="svg_9" d="m150.543193,614.737519l50.788078,-16.003872c50.788078,-16.304415 152.364234,-47.861346 253.94039,-36.065064c101.576156,12.247095 203.152312,67.847403 304.728468,76.112313c101.576156,8.264911 203.152312,-32.308287 304.728468,-44.104568c101.576156,-12.247095 203.152312,4.282726 253.94039,12.021688l50.788078,8.039504l0,96.173505l-50.788078,0c-50.788078,0 -152.364234,0 -253.94039,0c-101.576156,0 -203.152312,0 -304.728468,0c-101.576156,0 -203.152312,0 -304.728468,0c-101.576156,0 -203.152312,0 -253.94039,0l-50.788078,0l0,-96.173505z" fill="#ff5656"/>
  </g>
  <g stroke="null" id="svg_5">
   <path stroke="null" id="svg_4" d="m-6.333331,621.085865l36.842939,-10.740184c36.842939,-10.740184 110.528816,-32.220553 184.214693,-28.662867c73.685877,3.826191 147.371754,32.019174 221.057631,39.403051c73.685877,7.383877 147.371754,-7.383877 221.057631,-28.662867c73.685877,-21.681747 147.371754,-49.87473 221.057631,-39.335925c73.685877,10.941563 147.371754,60.614914 221.057631,75.181289c73.685877,14.29787 147.371754,-7.182498 184.214693,-17.922682l36.842939,-10.740184l0,85.921473l-36.842939,0c-36.842939,0 -110.528816,0 -184.214693,0c-73.685877,0 -147.371754,0 -221.057631,0c-73.685877,0 -147.371754,0 -221.057631,0c-73.685877,0 -147.371754,0 -221.057631,0c-73.685877,0 -147.371754,0 -221.057631,0c-73.685877,0 -147.371754,0 -184.214693,0l-36.842939,0l0,-64.441105z" fill="#b52032"/>
  </g>
 </g>
</svg>