<svg width="1600" height="1200" xmlns="http://www.w3.org/2000/svg">
 <!-- Created with Method Draw - http://github.com/duopixel/Method-Draw/ -->

 <g>
  <title>background</title>
  <rect fill="#fff" id="canvas_background" height="1202" width="1602" y="-1" x="-1"/>
  <g display="none" overflow="visible" y="0" x="0" height="100%" width="100%" id="canvasGrid">
   <rect fill="url(#gridpattern)" stroke-width="0" y="0" x="0" height="100%" width="100%"/>
  </g>
 </g>
 <g>
  <title>Layer 1</title>
  <g stroke="null" transform="rotate(90 296.0515747070313,242.99481201171878) translate(-58.000160217285156,-78.00021362304688) translate(8.000021934509277,-182.00050354003906) " id="svg_5">
   <path stroke="null" id="svg_4" d="m-187.511824,-261.620725l40.296947,18.572656c40.296947,19.974366 120.89084,55.017113 201.484733,131.059874c80.593893,74.641051 161.187786,186.777842 241.781679,205.350498c80.593893,19.974366 161.187786,-57.119678 241.781679,18.923083c80.593893,74.641051 161.187786,298.914632 201.484733,411.051423l40.296947,112.136791l0,112.136791l-40.296947,0c-40.296947,0 -120.89084,0 -201.484733,0c-80.593893,0 -161.187786,0 -241.781679,0c-80.593893,0 -161.187786,0 -241.781679,0c-80.593893,0 -161.187786,0 -201.484733,0l-40.296947,0l0,-1009.231115z" fill="#aa191f"/>
  </g>
  <g stroke="null" id="svg_7">
   <path transform="rotate(90 496.0501403808594,182.9917602539063) " stroke="null" id="svg_6" d="m12.486818,-319.62373l40.29695,18.499037c40.29695,19.895199 120.89084,54.799051 201.48473,130.54042c80.5939,74.345208 161.18779,186.03754 241.78168,204.536578c80.5939,19.895199 161.18779,-56.893281 241.78168,18.84808c80.59389,74.345215 161.18779,297.72988 201.48473,409.422205l40.29695,111.692332l0,111.692332l-40.29695,0c-40.29694,0 -120.89084,0 -201.48473,0c-80.59389,0 -161.18778,0 -241.78168,0c-80.59389,0 -161.18778,0 -241.78168,0c-80.59389,0 -161.18778,0 -201.48473,0l-40.29695,0l0,-1005.230985z" fill="#b52032"/>
  </g>
 </g>
</svg>